<svg xmlns="http://www.w3.org/2000/svg" xmlns:xlink="http://www.w3.org/1999/xlink" contentStyleType="text/css" data-diagram-type="CLASS" height="803px" preserveAspectRatio="none" style="width:1069px;height:803px;background:#FFFFFF;" version="1.1" viewBox="0 0 1069 803" width="1069px" zoomAndPan="magnify"><defs/><g><!--class Fruit--><g class="entity" data-entity="Fruit" data-source-line="1" data-uid="ent0002" id="entity_Fruit"><rect fill="#F1F1F1" height="96.8906" rx="2.5" ry="2.5" style="stroke:#181818;stroke-width:0.5;" width="210.3447" x="434.89" y="542.86"/><ellipse cx="519.7821" cy="558.86" fill="#B4A7E5" rx="11" ry="11" style="stroke:#181818;stroke-width:1;"/><path d="M515.704,554.6256 L515.704,552.4694 L523.0946,552.4694 L523.0946,554.6256 L520.6258,554.6256 L520.6258,562.7038 L523.0946,562.7038 L523.0946,564.86 L515.704,564.86 L515.704,562.7038 L518.1727,562.7038 L518.1727,554.6256 L515.704,554.6256 Z " fill="#000000"/><text fill="#000000" font-family="sans-serif" font-size="14" font-style="italic" lengthAdjust="spacing" textLength="32.0605" x="540.2821" y="563.7067">Fruit</text><line style="stroke:#181818;stroke-width:0.5;" x1="435.89" x2="644.2347" y1="574.86" y2="574.86"/><ellipse cx="445.89" cy="588.5084" fill="none" rx="3" ry="3" style="stroke:#038048;stroke-width:1;"/><text fill="#000000" font-family="sans-serif" font-size="14" lengthAdjust="spacing" textLength="40.4346" x="454.89" y="591.8551">id: Int</text><ellipse cx="445.89" cy="604.8053" fill="none" rx="3" ry="3" style="stroke:#038048;stroke-width:1;"/><text fill="#000000" font-family="sans-serif" font-size="14" lengthAdjust="spacing" textLength="56.6836" x="454.89" y="608.152">icon: Int</text><line style="stroke:#181818;stroke-width:0.5;" x1="435.89" x2="644.2347" y1="615.4538" y2="615.4538"/><ellipse cx="445.89" cy="629.1022" fill="#84BE84" rx="3" ry="3" style="stroke:#038048;stroke-width:1;"/><text fill="#000000" font-family="sans-serif" font-size="14" lengthAdjust="spacing" textLength="184.3447" x="454.89" y="632.4489">getValue(count: Int): Float</text></g><!--class Dragon--><g class="entity" data-entity="Dragon" data-source-line="7" data-uid="ent0003" id="entity_Dragon"><rect fill="#F1F1F1" height="96.8906" rx="2.5" ry="2.5" style="stroke:#181818;stroke-width:0.5;" width="236.1299" x="7" y="699.75"/><ellipse cx="95.0947" cy="715.75" fill="#ADD1B2" rx="11" ry="11" style="stroke:#181818;stroke-width:1;"/><path d="M98.0635,721.3906 Q97.4854,721.6875 96.8447,721.8281 Q96.2041,721.9844 95.501,721.9844 Q93.001,721.9844 91.6729,720.3438 Q90.3604,718.6875 90.3604,715.5625 Q90.3604,712.4375 91.6729,710.7813 Q93.001,709.125 95.501,709.125 Q96.2041,709.125 96.8447,709.2813 Q97.501,709.4375 98.0635,709.7344 L98.0635,712.4531 Q97.4385,711.875 96.8447,711.6094 Q96.251,711.3281 95.626,711.3281 Q94.2822,711.3281 93.5947,712.4063 Q92.9072,713.4688 92.9072,715.5625 Q92.9072,717.6563 93.5947,718.7344 Q94.2822,719.7969 95.626,719.7969 Q96.251,719.7969 96.8447,719.5313 Q97.4385,719.25 98.0635,718.6719 L98.0635,721.3906 Z " fill="#000000"/><text fill="#000000" font-family="sans-serif" font-size="14" lengthAdjust="spacing" textLength="51.4404" x="115.5947" y="720.5967">Dragon</text><line style="stroke:#181818;stroke-width:0.5;" x1="8" x2="242.1299" y1="731.75" y2="731.75"/><ellipse cx="18" cy="745.3984" fill="none" rx="3" ry="3" style="stroke:#038048;stroke-width:1;"/><text fill="#000000" font-family="sans-serif" font-size="14" lengthAdjust="spacing" textLength="69.9727" x="27" y="748.7451">id: Int = 7</text><ellipse cx="18" cy="761.6953" fill="none" rx="3" ry="3" style="stroke:#038048;stroke-width:1;"/><text fill="#000000" font-family="sans-serif" font-size="14" lengthAdjust="spacing" textLength="210.1299" x="27" y="765.042">icon: Int = R.drawable.dragon</text><line style="stroke:#181818;stroke-width:0.5;" x1="8" x2="242.1299" y1="772.3438" y2="772.3438"/><ellipse cx="18" cy="785.9922" fill="#84BE84" rx="3" ry="3" style="stroke:#038048;stroke-width:1;"/><text fill="#000000" font-family="sans-serif" font-size="14" lengthAdjust="spacing" textLength="184.3447" x="27" y="789.3389">getValue(count: Int): Float</text></g><!--class Durian--><g class="entity" data-entity="Durian" data-source-line="13" data-uid="ent0004" id="entity_Durian"><rect fill="#F1F1F1" height="96.8906" rx="2.5" ry="2.5" style="stroke:#181818;stroke-width:0.5;" width="244.791" x="277.67" y="699.75"/><ellipse cx="372.44" cy="715.75" fill="#ADD1B2" rx="11" ry="11" style="stroke:#181818;stroke-width:1;"/><path d="M375.4088,721.3906 Q374.8306,721.6875 374.19,721.8281 Q373.5494,721.9844 372.8463,721.9844 Q370.3463,721.9844 369.0181,720.3438 Q367.7056,718.6875 367.7056,715.5625 Q367.7056,712.4375 369.0181,710.7813 Q370.3463,709.125 372.8463,709.125 Q373.5494,709.125 374.19,709.2813 Q374.8463,709.4375 375.4088,709.7344 L375.4088,712.4531 Q374.7838,711.875 374.19,711.6094 Q373.5963,711.3281 372.9713,711.3281 Q371.6275,711.3281 370.94,712.4063 Q370.2525,713.4688 370.2525,715.5625 Q370.2525,717.6563 370.94,718.7344 Q371.6275,719.7969 372.9713,719.7969 Q373.5963,719.7969 374.19,719.5313 Q374.7838,719.25 375.4088,718.6719 L375.4088,721.3906 Z " fill="#000000"/><text fill="#000000" font-family="sans-serif" font-size="14" lengthAdjust="spacing" textLength="46.751" x="392.94" y="720.5967">Durian</text><line style="stroke:#181818;stroke-width:0.5;" x1="278.67" x2="521.461" y1="731.75" y2="731.75"/><ellipse cx="288.67" cy="745.3984" fill="none" rx="3" ry="3" style="stroke:#038048;stroke-width:1;"/><text fill="#000000" font-family="sans-serif" font-size="14" lengthAdjust="spacing" textLength="69.9727" x="297.67" y="748.7451">id: Int = 5</text><ellipse cx="288.67" cy="761.6953" fill="none" rx="3" ry="3" style="stroke:#038048;stroke-width:1;"/><text fill="#000000" font-family="sans-serif" font-size="14" lengthAdjust="spacing" textLength="218.791" x="297.67" y="765.042">icon: Int = R.drawable.grenade</text><line style="stroke:#181818;stroke-width:0.5;" x1="278.67" x2="521.461" y1="772.3438" y2="772.3438"/><ellipse cx="288.67" cy="785.9922" fill="#84BE84" rx="3" ry="3" style="stroke:#038048;stroke-width:1;"/><text fill="#000000" font-family="sans-serif" font-size="14" lengthAdjust="spacing" textLength="184.3447" x="297.67" y="789.3389">getValue(count: Int): Float</text></g><!--class Grenade--><g class="entity" data-entity="Grenade" data-source-line="19" data-uid="ent0005" id="entity_Grenade"><rect fill="#F1F1F1" height="96.8906" rx="2.5" ry="2.5" style="stroke:#181818;stroke-width:0.5;" width="244.791" x="557.67" y="699.75"/><ellipse cx="645.7305" cy="715.75" fill="#ADD1B2" rx="11" ry="11" style="stroke:#181818;stroke-width:1;"/><path d="M648.6993,721.3906 Q648.1212,721.6875 647.4805,721.8281 Q646.8399,721.9844 646.1368,721.9844 Q643.6368,721.9844 642.3087,720.3438 Q640.9962,718.6875 640.9962,715.5625 Q640.9962,712.4375 642.3087,710.7813 Q643.6368,709.125 646.1368,709.125 Q646.8399,709.125 647.4805,709.2813 Q648.1368,709.4375 648.6993,709.7344 L648.6993,712.4531 Q648.0743,711.875 647.4805,711.6094 Q646.8868,711.3281 646.2618,711.3281 Q644.918,711.3281 644.2305,712.4063 Q643.543,713.4688 643.543,715.5625 Q643.543,717.6563 644.2305,718.7344 Q644.918,719.7969 646.2618,719.7969 Q646.8868,719.7969 647.4805,719.5313 Q648.0743,719.25 648.6993,718.6719 L648.6993,721.3906 Z " fill="#000000"/><text fill="#000000" font-family="sans-serif" font-size="14" lengthAdjust="spacing" textLength="60.1699" x="666.2305" y="720.5967">Grenade</text><line style="stroke:#181818;stroke-width:0.5;" x1="558.67" x2="801.461" y1="731.75" y2="731.75"/><ellipse cx="568.67" cy="745.3984" fill="none" rx="3" ry="3" style="stroke:#038048;stroke-width:1;"/><text fill="#000000" font-family="sans-serif" font-size="14" lengthAdjust="spacing" textLength="69.9727" x="577.67" y="748.7451">id: Int = 5</text><ellipse cx="568.67" cy="761.6953" fill="none" rx="3" ry="3" style="stroke:#038048;stroke-width:1;"/><text fill="#000000" font-family="sans-serif" font-size="14" lengthAdjust="spacing" textLength="218.791" x="577.67" y="765.042">icon: Int = R.drawable.grenade</text><line style="stroke:#181818;stroke-width:0.5;" x1="558.67" x2="801.461" y1="772.3438" y2="772.3438"/><ellipse cx="568.67" cy="785.9922" fill="#84BE84" rx="3" ry="3" style="stroke:#038048;stroke-width:1;"/><text fill="#000000" font-family="sans-serif" font-size="14" lengthAdjust="spacing" textLength="184.3447" x="577.67" y="789.3389">getValue(count: Int): Float</text></g><!--class FruitNormal--><g class="entity" data-entity="FruitNormal" data-source-line="25" data-uid="ent0006" id="entity_FruitNormal"><rect fill="#F1F1F1" height="96.8906" rx="2.5" ry="2.5" style="stroke:#181818;stroke-width:0.5;" width="225.6436" x="837.24" y="699.75"/><ellipse cx="904.3313" cy="715.75" fill="#ADD1B2" rx="11" ry="11" style="stroke:#181818;stroke-width:1;"/><path d="M907.3001,721.3906 Q906.7219,721.6875 906.0813,721.8281 Q905.4407,721.9844 904.7376,721.9844 Q902.2376,721.9844 900.9094,720.3438 Q899.5969,718.6875 899.5969,715.5625 Q899.5969,712.4375 900.9094,710.7813 Q902.2376,709.125 904.7376,709.125 Q905.4407,709.125 906.0813,709.2813 Q906.7376,709.4375 907.3001,709.7344 L907.3001,712.4531 Q906.6751,711.875 906.0813,711.6094 Q905.4876,711.3281 904.8626,711.3281 Q903.5188,711.3281 902.8313,712.4063 Q902.1438,713.4688 902.1438,715.5625 Q902.1438,717.6563 902.8313,718.7344 Q903.5188,719.7969 904.8626,719.7969 Q905.4876,719.7969 906.0813,719.5313 Q906.6751,719.25 907.3001,718.6719 L907.3001,721.3906 Z " fill="#000000"/><text fill="#000000" font-family="sans-serif" font-size="14" lengthAdjust="spacing" textLength="82.9609" x="924.8313" y="720.5967">FruitNormal</text><line style="stroke:#181818;stroke-width:0.5;" x1="838.24" x2="1061.8836" y1="731.75" y2="731.75"/><ellipse cx="848.24" cy="745.3984" fill="none" rx="3" ry="3" style="stroke:#038048;stroke-width:1;"/><text fill="#000000" font-family="sans-serif" font-size="14" lengthAdjust="spacing" textLength="69.9727" x="857.24" y="748.7451">id: Int = 1</text><ellipse cx="848.24" cy="761.6953" fill="none" rx="3" ry="3" style="stroke:#038048;stroke-width:1;"/><text fill="#000000" font-family="sans-serif" font-size="14" lengthAdjust="spacing" textLength="199.6436" x="857.24" y="765.042">icon: Int = R.drawable.fraise</text><line style="stroke:#181818;stroke-width:0.5;" x1="838.24" x2="1061.8836" y1="772.3438" y2="772.3438"/><ellipse cx="848.24" cy="785.9922" fill="#84BE84" rx="3" ry="3" style="stroke:#038048;stroke-width:1;"/><text fill="#000000" font-family="sans-serif" font-size="14" lengthAdjust="spacing" textLength="184.3447" x="857.24" y="789.3389">getValue(count: Int): Float</text></g><!--class SlotMachine--><g class="entity" data-entity="SlotMachine" data-source-line="31" data-uid="ent0007" id="entity_SlotMachine"><rect fill="#F1F1F1" height="113.1875" rx="2.5" ry="2.5" style="stroke:#181818;stroke-width:0.5;" width="224.7207" x="427.7" y="369.67"/><ellipse cx="493.0926" cy="385.67" fill="#ADD1B2" rx="11" ry="11" style="stroke:#181818;stroke-width:1;"/><path d="M496.0613,391.3106 Q495.4832,391.6075 494.8426,391.7481 Q494.202,391.9044 493.4988,391.9044 Q490.9988,391.9044 489.6707,390.2637 Q488.3582,388.6075 488.3582,385.4825 Q488.3582,382.3575 489.6707,380.7012 Q490.9988,379.045 493.4988,379.045 Q494.202,379.045 494.8426,379.2012 Q495.4988,379.3575 496.0613,379.6544 L496.0613,382.3731 Q495.4363,381.795 494.8426,381.5294 Q494.2488,381.2481 493.6238,381.2481 Q492.2801,381.2481 491.5926,382.3262 Q490.9051,383.3887 490.9051,385.4825 Q490.9051,387.5762 491.5926,388.6544 Q492.2801,389.7169 493.6238,389.7169 Q494.2488,389.7169 494.8426,389.4512 Q495.4363,389.17 496.0613,388.5919 L496.0613,391.3106 Z " fill="#000000"/><text fill="#000000" font-family="sans-serif" font-size="14" lengthAdjust="spacing" textLength="85.4355" x="513.5926" y="390.5167">SlotMachine</text><line style="stroke:#181818;stroke-width:0.5;" x1="428.7" x2="651.4207" y1="401.67" y2="401.67"/><ellipse cx="438.7" cy="415.3184" fill="none" rx="3" ry="3" style="stroke:#038048;stroke-width:1;"/><text fill="#000000" font-family="sans-serif" font-size="14" lengthAdjust="spacing" textLength="72.3105" x="447.7" y="418.6651">luck: Float</text><ellipse cx="438.7" cy="431.6153" fill="none" rx="3" ry="3" style="stroke:#038048;stroke-width:1;"/><text fill="#000000" font-family="sans-serif" font-size="14" lengthAdjust="spacing" textLength="138.8721" x="447.7" y="434.962">fruits: Array&lt;Fruit&gt;</text><line style="stroke:#181818;stroke-width:0.5;" x1="428.7" x2="651.4207" y1="442.2637" y2="442.2637"/><ellipse cx="438.7" cy="455.9122" fill="#84BE84" rx="3" ry="3" style="stroke:#038048;stroke-width:1;"/><text fill="#000000" font-family="sans-serif" font-size="14" lengthAdjust="spacing" textLength="161.4854" x="447.7" y="459.2589">play(mise: Float): Float</text><ellipse cx="438.7" cy="472.2091" fill="#84BE84" rx="3" ry="3" style="stroke:#038048;stroke-width:1;"/><text fill="#000000" font-family="sans-serif" font-size="14" lengthAdjust="spacing" textLength="198.7207" x="447.7" y="475.5557">getResult(mise: Float): Float</text></g><!--class SlotMachineActivity--><g class="entity" data-entity="SlotMachineActivity" data-source-line="38" data-uid="ent0008" id="entity_SlotMachineActivity"><rect fill="#F1F1F1" height="129.4844" rx="2.5" ry="2.5" style="stroke:#181818;stroke-width:0.5;" width="335.0254" x="372.55" y="180.19"/><ellipse cx="466.7937" cy="196.19" fill="#ADD1B2" rx="11" ry="11" style="stroke:#181818;stroke-width:1;"/><path d="M469.7624,201.8306 Q469.1843,202.1275 468.5437,202.2681 Q467.903,202.4244 467.1999,202.4244 Q464.6999,202.4244 463.3718,200.7837 Q462.0593,199.1275 462.0593,196.0025 Q462.0593,192.8775 463.3718,191.2212 Q464.6999,189.565 467.1999,189.565 Q467.903,189.565 468.5437,189.7212 Q469.1999,189.8775 469.7624,190.1744 L469.7624,192.8931 Q469.1374,192.315 468.5437,192.0494 Q467.9499,191.7681 467.3249,191.7681 Q465.9812,191.7681 465.2937,192.8462 Q464.6062,193.9087 464.6062,196.0025 Q464.6062,198.0962 465.2937,199.1744 Q465.9812,200.2369 467.3249,200.2369 Q467.9499,200.2369 468.5437,199.9712 Q469.1374,199.69 469.7624,199.1119 L469.7624,201.8306 Z " fill="#000000"/><text fill="#000000" font-family="sans-serif" font-size="14" lengthAdjust="spacing" textLength="138.0381" x="487.2937" y="201.0367">SlotMachineActivity</text><line style="stroke:#181818;stroke-width:0.5;" x1="373.55" x2="706.5754" y1="212.19" y2="212.19"/><ellipse cx="383.55" cy="225.8384" fill="none" rx="3" ry="3" style="stroke:#038048;stroke-width:1;"/><text fill="#000000" font-family="sans-serif" font-size="14" lengthAdjust="spacing" textLength="154.7656" x="392.55" y="229.1851">machine: SlotMachine</text><line style="stroke:#181818;stroke-width:0.5;" x1="373.55" x2="706.5754" y1="236.4869" y2="236.4869"/><ellipse cx="383.55" cy="250.1353" fill="#84BE84" rx="3" ry="3" style="stroke:#038048;stroke-width:1;"/><text fill="#000000" font-family="sans-serif" font-size="14" lengthAdjust="spacing" textLength="309.0254" x="392.55" y="253.482">onCreate(savedInstanceState: Bundle): Unit</text><ellipse cx="383.55" cy="266.4322" fill="#84BE84" rx="3" ry="3" style="stroke:#038048;stroke-width:1;"/><text fill="#000000" font-family="sans-serif" font-size="14" lengthAdjust="spacing" textLength="122.7871" x="392.55" y="269.7789">onResume(): Unit</text><ellipse cx="383.55" cy="282.7291" fill="#84BE84" rx="3" ry="3" style="stroke:#038048;stroke-width:1;"/><text fill="#000000" font-family="sans-serif" font-size="14" lengthAdjust="spacing" textLength="193.6279" x="392.55" y="286.0757">openBank(view: View): Unit</text><ellipse cx="383.55" cy="299.0259" fill="#84BE84" rx="3" ry="3" style="stroke:#038048;stroke-width:1;"/><text fill="#000000" font-family="sans-serif" font-size="14" lengthAdjust="spacing" textLength="161.1572" x="392.55" y="302.3726">updateBetValue(): Unit</text></g><!--class BanqueActivity--><g class="entity" data-entity="BanqueActivity" data-source-line="46" data-uid="ent0009" id="entity_BanqueActivity"><rect fill="#F1F1F1" height="113.1875" rx="2.5" ry="2.5" style="stroke:#181818;stroke-width:0.5;" width="335.0254" x="187.55" y="7"/><ellipse cx="297.7966" cy="23" fill="#ADD1B2" rx="11" ry="11" style="stroke:#181818;stroke-width:1;"/><path d="M300.7653,28.6406 Q300.1872,28.9375 299.5466,29.0781 Q298.906,29.2344 298.2028,29.2344 Q295.7028,29.2344 294.3747,27.5938 Q293.0622,25.9375 293.0622,22.8125 Q293.0622,19.6875 294.3747,18.0313 Q295.7028,16.375 298.2028,16.375 Q298.906,16.375 299.5466,16.5313 Q300.2028,16.6875 300.7653,16.9844 L300.7653,19.7031 Q300.1403,19.125 299.5466,18.8594 Q298.9528,18.5781 298.3278,18.5781 Q296.9841,18.5781 296.2966,19.6563 Q295.6091,20.7188 295.6091,22.8125 Q295.6091,24.9063 296.2966,25.9844 Q296.9841,27.0469 298.3278,27.0469 Q298.9528,27.0469 299.5466,26.7813 Q300.1403,26.5 300.7653,25.9219 L300.7653,28.6406 Z " fill="#000000"/><text fill="#000000" font-family="sans-serif" font-size="14" lengthAdjust="spacing" textLength="106.0322" x="318.2966" y="27.8467">BanqueActivity</text><line style="stroke:#181818;stroke-width:0.5;" x1="188.55" x2="521.5754" y1="39" y2="39"/><line style="stroke:#181818;stroke-width:0.5;" x1="188.55" x2="521.5754" y1="47" y2="47"/><ellipse cx="198.55" cy="60.6484" fill="#84BE84" rx="3" ry="3" style="stroke:#038048;stroke-width:1;"/><text fill="#000000" font-family="sans-serif" font-size="14" lengthAdjust="spacing" textLength="309.0254" x="207.55" y="63.9951">onCreate(savedInstanceState: Bundle): Unit</text><ellipse cx="198.55" cy="76.9453" fill="#84BE84" rx="3" ry="3" style="stroke:#038048;stroke-width:1;"/><text fill="#000000" font-family="sans-serif" font-size="14" lengthAdjust="spacing" textLength="182.082" x="207.55" y="80.292">Diminue(view: View): Unit</text><ellipse cx="198.55" cy="93.2422" fill="#84BE84" rx="3" ry="3" style="stroke:#038048;stroke-width:1;"/><text fill="#000000" font-family="sans-serif" font-size="14" lengthAdjust="spacing" textLength="196.0889" x="207.55" y="96.5889">Augmente(view: View): Unit</text><ellipse cx="198.55" cy="109.5391" fill="#84BE84" rx="3" ry="3" style="stroke:#038048;stroke-width:1;"/><text fill="#000000" font-family="sans-serif" font-size="14" lengthAdjust="spacing" textLength="149.8027" x="207.55" y="112.8857">exit(view: View): Unit</text></g><!--class MainActivity--><g class="entity" data-entity="MainActivity" data-source-line="53" data-uid="ent0010" id="entity_MainActivity"><rect fill="#F1F1F1" height="64.2969" rx="2.5" ry="2.5" style="stroke:#181818;stroke-width:0.5;" width="335.0254" x="557.55" y="31.44"/><ellipse cx="677.801" cy="47.44" fill="#ADD1B2" rx="11" ry="11" style="stroke:#181818;stroke-width:1;"/><path d="M680.7697,53.0806 Q680.1916,53.3775 679.551,53.5181 Q678.9104,53.6744 678.2072,53.6744 Q675.7072,53.6744 674.3791,52.0337 Q673.0666,50.3775 673.0666,47.2525 Q673.0666,44.1275 674.3791,42.4712 Q675.7072,40.815 678.2072,40.815 Q678.9104,40.815 679.551,40.9712 Q680.2072,41.1275 680.7697,41.4244 L680.7697,44.1431 Q680.1447,43.565 679.551,43.2994 Q678.9572,43.0181 678.3322,43.0181 Q676.9885,43.0181 676.301,44.0962 Q675.6135,45.1587 675.6135,47.2525 Q675.6135,49.3462 676.301,50.4244 Q676.9885,51.4869 678.3322,51.4869 Q678.9572,51.4869 679.551,51.2212 Q680.1447,50.94 680.7697,50.3619 L680.7697,53.0806 Z " fill="#000000"/><text fill="#000000" font-family="sans-serif" font-size="14" lengthAdjust="spacing" textLength="86.0234" x="698.301" y="52.2867">MainActivity</text><line style="stroke:#181818;stroke-width:0.5;" x1="558.55" x2="891.5754" y1="63.44" y2="63.44"/><line style="stroke:#181818;stroke-width:0.5;" x1="558.55" x2="891.5754" y1="71.44" y2="71.44"/><ellipse cx="568.55" cy="85.0884" fill="#84BE84" rx="3" ry="3" style="stroke:#038048;stroke-width:1;"/><text fill="#000000" font-family="sans-serif" font-size="14" lengthAdjust="spacing" textLength="309.0254" x="577.55" y="88.4351">onCreate(savedInstanceState: Bundle): Unit</text></g><!--reverse link Fruit to Dragon--><g class="link" data-entity-1="Fruit" data-entity-2="Dragon" data-source-line="57" data-uid="lnk11" id="link_Fruit_Dragon"><path codeLine="57" d="M417.6756,637.9823 C359.4356,659.7123 303.81,680.48 243.63,702.94" fill="none" id="Fruit-backto-Dragon" style="stroke:#181818;stroke-width:1;stroke-dasharray:7.0,7.0;"/><polygon fill="none" points="434.54,631.69,415.5782,632.3608,419.7731,643.6037,434.54,631.69" style="stroke:#181818;stroke-width:1;"/></g><!--reverse link Fruit to Durian--><g class="link" data-entity-1="Fruit" data-entity-2="Durian" data-source-line="58" data-uid="lnk12" id="link_Fruit_Durian"><path codeLine="58" d="M484.8497,653.3932 C467.8197,672.2332 460.35,680.49 443.31,699.35" fill="none" id="Fruit-backto-Durian" style="stroke:#181818;stroke-width:1;stroke-dasharray:7.0,7.0;"/><polygon fill="none" points="496.92,640.04,480.3986,649.3697,489.3007,657.4166,496.92,640.04" style="stroke:#181818;stroke-width:1;"/></g><!--reverse link Fruit to Grenade--><g class="link" data-entity-1="Fruit" data-entity-2="Grenade" data-source-line="59" data-uid="lnk13" id="link_Fruit_Grenade"><path codeLine="59" d="M595.2803,653.3932 C612.3103,672.2332 619.78,680.49 636.82,699.35" fill="none" id="Fruit-backto-Grenade" style="stroke:#181818;stroke-width:1;stroke-dasharray:7.0,7.0;"/><polygon fill="none" points="583.21,640.04,590.8293,657.4166,599.7314,649.3697,583.21,640.04" style="stroke:#181818;stroke-width:1;"/></g><!--reverse link Fruit to FruitNormal--><g class="link" data-entity-1="Fruit" data-entity-2="FruitNormal" data-source-line="60" data-uid="lnk14" id="link_Fruit_FruitNormal"><path codeLine="60" d="M662.4883,638.5518 C721.0883,660.6918 777.16,681.88 836.93,704.46" fill="none" id="Fruit-backto-FruitNormal" style="stroke:#181818;stroke-width:1;stroke-dasharray:7.0,7.0;"/><polygon fill="none" points="645.65,632.19,660.3677,644.1645,664.6089,632.939,645.65,632.19" style="stroke:#181818;stroke-width:1;"/></g><!--reverse link SlotMachine to Fruit--><g class="link" data-entity-1="SlotMachine" data-entity-2="Fruit" data-source-line="61" data-uid="lnk15" id="link_SlotMachine_Fruit"><path codeLine="61" d="M540.06,494.92 C540.06,514.29 540.06,523.84 540.06,542.51" fill="none" id="SlotMachine-backto-Fruit" style="stroke:#181818;stroke-width:1;"/><polygon fill="#181818" points="540.06,482.92,536.06,488.92,540.06,494.92,544.06,488.92,540.06,482.92" style="stroke:#181818;stroke-width:1;"/></g><!--reverse link SlotMachineActivity to SlotMachine--><g class="link" data-entity-1="SlotMachineActivity" data-entity-2="SlotMachine" data-source-line="62" data-uid="lnk16" id="link_SlotMachineActivity_SlotMachine"><path codeLine="62" d="M540.06,322.17 C540.06,341.46 540.06,350.47 540.06,369.2" fill="none" id="SlotMachineActivity-backto-SlotMachine" style="stroke:#181818;stroke-width:1;"/><polygon fill="#181818" points="540.06,310.17,536.06,316.17,540.06,322.17,544.06,316.17,540.06,310.17" style="stroke:#181818;stroke-width:1;"/></g><!--reverse link BanqueActivity to SlotMachineActivity--><g class="link" data-entity-1="BanqueActivity" data-entity-2="SlotMachineActivity" data-source-line="63" data-uid="lnk17" id="link_BanqueActivity_SlotMachineActivity"><path codeLine="63" d="M421.4553,128.9533 C440.8553,147.7633 454.03,160.52 474.01,179.9" fill="none" id="BanqueActivity-backto-SlotMachineActivity" style="stroke:#181818;stroke-width:1;"/><polygon fill="#181818" points="412.84,120.6,414.3632,127.6484,421.4553,128.9533,419.9321,121.9049,412.84,120.6" style="stroke:#181818;stroke-width:1;"/></g><!--reverse link MainActivity to SlotMachineActivity--><g class="link" data-entity-1="MainActivity" data-entity-2="SlotMachineActivity" data-source-line="64" data-uid="lnk18" id="link_MainActivity_SlotMachineActivity"><path codeLine="64" d="M684.2242,104.1827 C660.3142,127.3627 635.49,151.42 606,180.02" fill="none" id="MainActivity-backto-SlotMachineActivity" style="stroke:#181818;stroke-width:1;"/><polygon fill="#181818" points="692.84,95.83,685.7479,97.1344,684.2242,104.1827,691.3164,102.8783,692.84,95.83" style="stroke:#181818;stroke-width:1;"/></g><!--SRC=[jLJ1Ji904BttA_POD99uC2ODce04mm4F4BcFsw5ks4vnEmiIzT_TjfIqfP0qnXwQxdipyzxkpbGHerc1H34nLh7uyeHxhbKOY2dnOI4JgYmZv2LeYxvCB75Ez08nqGcmz-DvKaEQYh61AA56EV4WxXib7JJlXmPsyAOn-t1PNMIiKT0YStTH9Z984687dUSYu_-5ybjuIKmC-bJizgBOoe1AksWjTC8paE-AZXlJLgxBk1nOPNxIG0oDWVqWT_TOC1iDUpzsYeVuNYtF6PXZQZMtXhHP64fMMyNxqafSm44rfc0IUZ88Z7uAMmodb3AGn0KxA10ZIw56f_HAYilup4gCVXtT88s0rlvMuIuGI_UkyNOJkeAZyY1BxcZTvNxO4zTTlOrLhCYLFsDYQACOtOYUu_5JSGjtD3a3HN-mwEeKluN1Txz_cEaQaezV5JaCIXMgjBHNRRchcvk2yzgw86EhDzyuxWPTubvjmsU2VW40]--></g></svg>